<svg width="17" height="15" fill="none" xmlns="http://www.w3.org/2000/svg"><path d="M7.615 9.404c0-1.964-.611-3.768-1.833-5.411C4.545 2.335 2.975 1.003 1.069 0L0 1.353A15.64 15.64 0 012.575 3.97c.727.96 1.09 1.92 1.09 2.88 0 .538-.101.902-.305 1.09-.218.19-.494.379-.829.568-.407.247-.793.604-1.156 1.07-.364.45-.546 1.04-.546 1.766 0 .859.284 1.586.851 2.182.567.582 1.302.873 2.204.873.989 0 1.861-.415 2.618-1.244.742-.829 1.113-2.08 1.113-3.752zm9.185 0c0-1.964-.61-3.768-1.833-5.411C13.731 2.335 12.16 1.003 10.255 0l-1.07 1.353A15.642 15.642 0 0111.76 3.97c.727.96 1.091 1.92 1.091 2.88 0 .538-.102.902-.306 1.09-.218.19-.494.379-.829.568-.407.247-.792.604-1.156 1.07-.364.45-.545 1.04-.545 1.766 0 .859.283 1.586.85 2.182.568.582 1.302.873 2.204.873.99 0 1.862-.415 2.618-1.244.742-.829 1.113-2.08 1.113-3.752z" fill="#6FB587"/></svg>