<svg width="13" height="13" fill="none" xmlns="http://www.w3.org/2000/svg"><g clip-path="url(#clip0_34_568)" fill="#402F2C"><path d="M12.988 3.774c-.03-.682-.14-1.15-.299-1.557a3.133 3.133 0 00-.742-1.139 3.16 3.16 0 00-1.136-.74C10.402.182 9.936.07 9.254.04 8.567.008 8.348 0 6.606 0 4.863 0 4.645.008 3.96.038c-.682.03-1.151.14-1.557.298a3.132 3.132 0 00-1.139.742 3.16 3.16 0 00-.74 1.136c-.158.41-.268.876-.298 1.558-.033.687-.04.905-.04 2.648s.007 1.96.037 2.646c.03.682.14 1.15.299 1.557.163.431.416.817.742 1.138.321.326.71.58 1.136.74.409.158.875.269 1.557.299.685.03.903.037 2.646.037 1.743 0 1.961-.007 2.646-.037.682-.03 1.15-.14 1.557-.299a3.283 3.283 0 001.878-1.878c.158-.409.269-.875.299-1.557.03-.685.037-.903.037-2.646 0-1.743-.002-1.961-.032-2.646zm-1.156 5.241c-.028.627-.133.966-.22 1.192a2.13 2.13 0 01-1.22 1.218c-.225.088-.566.193-1.19.221-.678.03-.881.038-2.594.038-1.713 0-1.918-.008-2.593-.038-.627-.028-.965-.133-1.191-.22a1.976 1.976 0 01-.737-.48 1.995 1.995 0 01-.48-.737c-.087-.226-.192-.567-.22-1.191-.03-.677-.038-.88-.038-2.593s.008-1.919.038-2.593c.028-.627.133-.966.22-1.191a1.95 1.95 0 01.482-.738 2 2 0 01.737-.479c.226-.087.567-.193 1.192-.22.677-.03.88-.038 2.593-.038 1.715 0 1.918.008 2.593.038.627.027.965.133 1.19.22.28.103.532.266.738.48.213.208.376.458.48.737.087.225.192.566.22 1.19.03.678.037.881.037 2.594 0 1.713-.007 1.913-.037 2.59z"/><path d="M6.605 3.122a3.299 3.299 0 10.002 6.597 3.299 3.299 0 00-.002-6.597zm0 5.437a2.14 2.14 0 110-4.28 2.14 2.14 0 010 4.28zm4.198-5.567a.77.77 0 11-1.54 0 .77.77 0 011.54 0z"/></g><defs><clipPath id="clip0_34_568"><path fill="#fff" transform="translate(.163)" d="M0 0h12.837v12.837H0z"/></clipPath></defs></svg>