<svg width="17" height="15" fill="none" xmlns="http://www.w3.org/2000/svg"><path d="M9.185 9.404c0-1.964.611-3.768 1.833-5.411 1.236-1.658 2.807-2.99 4.713-3.993L16.8 1.353a15.642 15.642 0 00-2.575 2.618c-.727.96-1.09 1.92-1.09 2.88 0 .538.101.902.305 1.09.218.19.495.379.83.568.406.247.792.604 1.155 1.07.364.45.546 1.04.546 1.766 0 .859-.284 1.586-.851 2.182-.567.582-1.302.873-2.204.873-.989 0-1.861-.415-2.618-1.244-.742-.829-1.113-2.08-1.113-3.752zM0 9.404C0 7.44.61 5.636 1.833 3.993 3.069 2.335 4.64 1.003 6.545 0l1.07 1.353A15.641 15.641 0 005.04 3.97c-.727.96-1.09 1.92-1.09 2.88 0 .538.1.902.305 1.09.218.19.494.379.829.568.407.247.792.604 1.156 1.07.364.45.545 1.04.545 1.766 0 .859-.283 1.586-.85 2.182-.568.582-1.302.873-2.204.873-.99 0-1.862-.415-2.618-1.244C.37 12.327 0 11.076 0 9.404z" fill="#6FB587"/></svg>