<svg width="14" height="13" fill="none" xmlns="http://www.w3.org/2000/svg"><g clip-path="url(#clip0_34_564)"><path d="M13.419 2.438c-.478.21-.987.348-1.517.416a2.616 2.616 0 001.158-1.455 5.259 5.259 0 01-1.669.637 2.63 2.63 0 00-4.552 1.8c0 .209.017.41.06.6a7.45 7.45 0 01-5.424-2.753A2.636 2.636 0 002.284 5.2a2.599 2.599 0 01-1.19-.323v.028c0 1.28.913 2.342 2.11 2.586a2.627 2.627 0 01-.69.087c-.17 0-.34-.01-.499-.045a2.657 2.657 0 002.46 1.833A5.288 5.288 0 011.21 10.49c-.216 0-.423-.01-.63-.036a7.409 7.409 0 004.038 1.18c4.843 0 7.49-4.01 7.49-7.488 0-.117-.004-.229-.01-.34a5.25 5.25 0 001.32-1.367z" fill="#402F2C"/></g><defs><clipPath id="clip0_34_564"><path fill="#fff" transform="translate(.581)" d="M0 0h12.837v12.837H0z"/></clipPath></defs></svg>